<svg width="16" height="16" viewBox="0 0 16 16" fill="none" xmlns="http://www.w3.org/2000/svg">
<g clip-path="url(#clip0_73_639)">
<path d="M14.03 8.2675V14.12C14.03 14.6186 13.8319 15.0968 13.4794 15.4494C13.1268 15.8019 12.6486 16 12.15 16H1.88C1.38139 16 0.903208 15.8019 0.550639 15.4494C0.198071 15.0968 0 14.6186 0 14.12L0 3.85C0 3.35139 0.198071 2.87321 0.550639 2.52064C0.903208 2.16807 1.38139 1.97 1.88 1.97H6.88C7.0756 1.97 7.26318 2.0477 7.40149 2.18601C7.5398 2.32432 7.6175 2.5119 7.6175 2.7075C7.6175 2.9031 7.5398 3.09068 7.40149 3.22899C7.26318 3.3673 7.0756 3.445 6.88 3.445H1.88C1.77302 3.44566 1.67065 3.48862 1.59524 3.5645C1.51982 3.64038 1.4775 3.74302 1.4775 3.85V14.12C1.4775 14.2267 1.51991 14.3291 1.59539 14.4046C1.67087 14.4801 1.77325 14.5225 1.88 14.5225H12.15C12.257 14.5225 12.3596 14.4802 12.4355 14.4048C12.5114 14.3294 12.5543 14.227 12.555 14.12V8.2675C12.555 8.0719 12.6327 7.88432 12.771 7.74601C12.9093 7.6077 13.0969 7.53 13.2925 7.53C13.4881 7.53 13.6757 7.6077 13.814 7.74601C13.9523 7.88432 14.03 8.0719 14.03 8.2675V8.2675ZM15.1625 0H10.3375C10.1637 0.0304507 10.0062 0.121219 9.89265 0.25634C9.77914 0.391461 9.71692 0.56228 9.71692 0.73875C9.71692 0.91522 9.77914 1.08604 9.89265 1.22116C10.0062 1.35628 10.1637 1.44705 10.3375 1.4775H13.4575L8.0925 6.8625C7.95658 7.00247 7.88055 7.18989 7.88055 7.385C7.88055 7.58011 7.95658 7.76753 8.0925 7.9075C8.23079 8.04566 8.41827 8.12327 8.61375 8.12327C8.80923 8.12327 8.99671 8.04566 9.135 7.9075L14.5225 2.5V5.415C14.5036 5.52281 14.5086 5.63344 14.537 5.73913C14.5654 5.84483 14.6166 5.94302 14.687 6.02683C14.7574 6.11063 14.8453 6.17801 14.9445 6.22423C15.0437 6.27046 15.1518 6.29442 15.2612 6.29442C15.3707 6.29442 15.4788 6.27046 15.578 6.22423C15.6772 6.17801 15.7651 6.11063 15.8355 6.02683C15.9059 5.94302 15.9571 5.84483 15.9855 5.73913C16.0139 5.63344 16.0189 5.52281 16 5.415V0.8375C16 0.615381 15.9118 0.40236 15.7547 0.245298C15.5976 0.0882364 15.3846 0 15.1625 0V0Z" fill="white"/>
</g>
<defs>
<clipPath id="clip0_73_639">
<rect width="16" height="16" fill="white"/>
</clipPath>
</defs>
</svg>
